<mxfile host="app.diagrams.net" modified="2022-12-05T03:26:02.822Z" agent="5.0 (Windows NT 10.0; Win64; x64) AppleWebKit/537.36 (KHTML, like Gecko) Chrome/95.0.4638.69 Safari/537.36" version="20.6.0" etag="QGrnZrHzwBTXroSsep5Z" type="github">
  <diagram id="2D9Y6gmKMdmvwzqiIpd5" name="第 1 页">
    <mxGraphModel dx="1422" dy="804" grid="0" gridSize="10" guides="1" tooltips="1" connect="1" arrows="1" fold="1" page="1" pageScale="1" pageWidth="2339" pageHeight="3300" math="0" shadow="0">
      <root>
        <mxCell id="0" />
        <mxCell id="1" parent="0" />
        <mxCell id="JezF_pTIhkVZUL-AKWTJ-29" style="edgeStyle=orthogonalEdgeStyle;rounded=0;orthogonalLoop=1;jettySize=auto;html=1;exitX=1;exitY=0.25;exitDx=0;exitDy=0;" edge="1" parent="1" source="JezF_pTIhkVZUL-AKWTJ-9" target="JezF_pTIhkVZUL-AKWTJ-20">
          <mxGeometry relative="1" as="geometry" />
        </mxCell>
        <mxCell id="JezF_pTIhkVZUL-AKWTJ-30" style="edgeStyle=orthogonalEdgeStyle;rounded=0;orthogonalLoop=1;jettySize=auto;html=1;exitX=1;exitY=0.5;exitDx=0;exitDy=0;" edge="1" parent="1" source="JezF_pTIhkVZUL-AKWTJ-9" target="JezF_pTIhkVZUL-AKWTJ-15">
          <mxGeometry relative="1" as="geometry" />
        </mxCell>
        <mxCell id="JezF_pTIhkVZUL-AKWTJ-31" style="edgeStyle=orthogonalEdgeStyle;rounded=0;orthogonalLoop=1;jettySize=auto;html=1;exitX=1;exitY=0.75;exitDx=0;exitDy=0;entryX=0;entryY=0.5;entryDx=0;entryDy=0;" edge="1" parent="1" source="JezF_pTIhkVZUL-AKWTJ-9" target="JezF_pTIhkVZUL-AKWTJ-22">
          <mxGeometry relative="1" as="geometry" />
        </mxCell>
        <mxCell id="JezF_pTIhkVZUL-AKWTJ-9" value="" style="rounded=1;whiteSpace=wrap;html=1;" vertex="1" parent="1">
          <mxGeometry x="365" y="125.9" width="145" height="330" as="geometry" />
        </mxCell>
        <mxCell id="JezF_pTIhkVZUL-AKWTJ-6" value="" style="points=[];aspect=fixed;html=1;align=center;shadow=0;dashed=0;image;image=img/lib/allied_telesis/computer_and_terminals/Server_Desktop.svg;" vertex="1" parent="1">
          <mxGeometry x="400" y="160" width="50" height="63.38" as="geometry" />
        </mxCell>
        <mxCell id="JezF_pTIhkVZUL-AKWTJ-7" value="" style="points=[];aspect=fixed;html=1;align=center;shadow=0;dashed=0;image;image=img/lib/allied_telesis/computer_and_terminals/Server_Desktop.svg;" vertex="1" parent="1">
          <mxGeometry x="400" y="259.21" width="50" height="63.38" as="geometry" />
        </mxCell>
        <mxCell id="JezF_pTIhkVZUL-AKWTJ-8" value="" style="points=[];aspect=fixed;html=1;align=center;shadow=0;dashed=0;image;image=img/lib/allied_telesis/computer_and_terminals/Server_Desktop.svg;" vertex="1" parent="1">
          <mxGeometry x="400" y="360" width="50" height="63.38" as="geometry" />
        </mxCell>
        <mxCell id="JezF_pTIhkVZUL-AKWTJ-15" value="mysql主从数据库" style="outlineConnect=0;dashed=0;verticalLabelPosition=bottom;verticalAlign=top;align=center;html=1;shape=mxgraph.aws3.mysql_db_instance;fillColor=#2E73B8;gradientColor=none;" vertex="1" parent="1">
          <mxGeometry x="640" y="259.21" width="60" height="64.5" as="geometry" />
        </mxCell>
        <mxCell id="JezF_pTIhkVZUL-AKWTJ-20" value="HDFS集中存储&lt;br&gt;" style="sketch=0;outlineConnect=0;fontColor=#232F3E;gradientColor=none;strokeColor=#232F3E;fillColor=#ffffff;dashed=0;verticalLabelPosition=bottom;verticalAlign=top;align=center;html=1;fontSize=12;fontStyle=0;aspect=fixed;shape=mxgraph.aws4.resourceIcon;resIcon=mxgraph.aws4.hdfs_cluster;" vertex="1" parent="1">
          <mxGeometry x="640" y="90" width="60" height="60" as="geometry" />
        </mxCell>
        <mxCell id="JezF_pTIhkVZUL-AKWTJ-21" value="应用服务器" style="text;html=1;strokeColor=none;fillColor=none;align=center;verticalAlign=middle;whiteSpace=wrap;rounded=0;" vertex="1" parent="1">
          <mxGeometry x="480" y="200" width="20" height="150" as="geometry" />
        </mxCell>
        <mxCell id="JezF_pTIhkVZUL-AKWTJ-22" value="" style="shape=image;html=1;verticalAlign=top;verticalLabelPosition=bottom;labelBackgroundColor=#ffffff;imageAspect=0;aspect=fixed;image=https://cdn2.iconfinder.com/data/icons/perqui/48/dw.png" vertex="1" parent="1">
          <mxGeometry x="640" y="423.38" width="60" height="60" as="geometry" />
        </mxCell>
        <mxCell id="JezF_pTIhkVZUL-AKWTJ-24" value="数据仓库" style="text;html=1;strokeColor=none;fillColor=none;align=center;verticalAlign=middle;whiteSpace=wrap;rounded=0;" vertex="1" parent="1">
          <mxGeometry x="640" y="483.38" width="60" height="30" as="geometry" />
        </mxCell>
        <mxCell id="JezF_pTIhkVZUL-AKWTJ-28" style="edgeStyle=orthogonalEdgeStyle;rounded=0;orthogonalLoop=1;jettySize=auto;html=1;exitX=0.5;exitY=1;exitDx=0;exitDy=0;exitPerimeter=0;" edge="1" parent="1" source="JezF_pTIhkVZUL-AKWTJ-27">
          <mxGeometry relative="1" as="geometry">
            <mxPoint x="360" y="290" as="targetPoint" />
          </mxGeometry>
        </mxCell>
        <mxCell id="JezF_pTIhkVZUL-AKWTJ-27" value="" style="verticalLabelPosition=bottom;html=1;verticalAlign=top;align=center;strokeColor=none;fillColor=#00BEF2;shape=mxgraph.azure.azure_load_balancer;direction=north;" vertex="1" parent="1">
          <mxGeometry x="250" y="265.35" width="35" height="50" as="geometry" />
        </mxCell>
        <mxCell id="JezF_pTIhkVZUL-AKWTJ-33" style="edgeStyle=orthogonalEdgeStyle;rounded=0;orthogonalLoop=1;jettySize=auto;html=1;exitX=1;exitY=0.5;exitDx=0;exitDy=0;exitPerimeter=0;entryX=0.5;entryY=0;entryDx=0;entryDy=0;entryPerimeter=0;" edge="1" parent="1" source="JezF_pTIhkVZUL-AKWTJ-32" target="JezF_pTIhkVZUL-AKWTJ-27">
          <mxGeometry relative="1" as="geometry" />
        </mxCell>
        <mxCell id="JezF_pTIhkVZUL-AKWTJ-32" value="" style="sketch=0;aspect=fixed;pointerEvents=1;shadow=0;dashed=0;html=1;strokeColor=none;labelPosition=center;verticalLabelPosition=bottom;verticalAlign=top;align=center;fillColor=#00188D;shape=mxgraph.azure.computer" vertex="1" parent="1">
          <mxGeometry x="130" y="262.76" width="61.3" height="55.17" as="geometry" />
        </mxCell>
        <mxCell id="JezF_pTIhkVZUL-AKWTJ-36" value="负载均衡" style="text;html=1;strokeColor=none;fillColor=none;align=center;verticalAlign=middle;whiteSpace=wrap;rounded=0;" vertex="1" parent="1">
          <mxGeometry x="237.5" y="320" width="60" height="30" as="geometry" />
        </mxCell>
      </root>
    </mxGraphModel>
  </diagram>
</mxfile>
